<svg width="62" height="62" viewBox="0 0 62 62" fill="none" xmlns="http://www.w3.org/2000/svg">
<path d="M13.5625 29.0625H52.3125C52.8264 29.0625 53.3192 29.2666 53.6825 29.63C54.0459 29.9933 54.25 30.4861 54.25 31C54.25 31.5139 54.0459 32.0067 53.6825 32.37C53.3192 32.7334 52.8264 32.9375 52.3125 32.9375H13.5625C13.0486 32.9375 12.5558 32.7334 12.1925 32.37C11.8291 32.0067 11.625 31.5139 11.625 31C11.625 30.4861 11.8291 29.9933 12.1925 29.63C12.5558 29.2666 13.0486 29.0625 13.5625 29.0625Z" fill="#FAFAFA"/>
<path d="M14.3647 31L30.4343 47.0658C30.7981 47.4296 31.0025 47.923 31.0025 48.4375C31.0025 48.952 30.7981 49.4454 30.4343 49.8093C30.0705 50.1731 29.5771 50.3775 29.0625 50.3775C28.548 50.3775 28.0546 50.1731 27.6908 49.8093L10.2533 32.3718C10.0729 32.1918 9.92971 31.978 9.83203 31.7426C9.73436 31.5072 9.68408 31.2549 9.68408 31C9.68408 30.7452 9.73436 30.4928 9.83203 30.2574C9.92971 30.022 10.0729 29.8082 10.2533 29.6283L27.6908 12.1908C28.0546 11.8269 28.548 11.6226 29.0625 11.6226C29.5771 11.6226 30.0705 11.8269 30.4343 12.1908C30.7981 12.5546 31.0025 13.048 31.0025 13.5625C31.0025 14.077 30.7981 14.5704 30.4343 14.9343L14.3647 31Z" fill="#FAFAFA"/>
</svg>
