<svg width="32" height="40" viewBox="0 0 32 40" fill="current" xmlns="http://www.w3.org/2000/svg">
<path fill-rule="evenodd" clip-rule="evenodd" d="M26 0C27.0609 0 28.0783 0.421427 28.8284 1.17157C29.5786 1.92172 30 2.93913 30 4V36C30.5304 36 31.0391 36.2107 31.4142 36.5858C31.7893 36.9609 32 37.4696 32 38C32 38.5304 31.7893 39.0391 31.4142 39.4142C31.0391 39.7893 30.5304 40 30 40H2C1.46957 40 0.96086 39.7893 0.585787 39.4142C0.210714 39.0391 0 38.5304 0 38C0 37.4696 0.210714 36.9609 0.585787 36.5858C0.96086 36.2107 1.46957 36 2 36V4C2 2.93913 2.42143 1.92172 3.17157 1.17157C3.92172 0.421427 4.93913 0 6 0H26ZM18 22H14C13.4696 22 12.9609 22.2107 12.5858 22.5858C12.2107 22.9609 12 23.4696 12 24V36H20V24C20 23.4696 19.7893 22.9609 19.4142 22.5858C19.0391 22.2107 18.5304 22 18 22ZM12 14C11.4696 14 10.9609 14.2107 10.5858 14.5858C10.2107 14.9609 10 15.4696 10 16C10 16.5304 10.2107 17.0391 10.5858 17.4142C10.9609 17.7893 11.4696 18 12 18C12.5304 18 13.0391 17.7893 13.4142 17.4142C13.7893 17.0391 14 16.5304 14 16C14 15.4696 13.7893 14.9609 13.4142 14.5858C13.0391 14.2107 12.5304 14 12 14ZM20 14C19.4696 14 18.9609 14.2107 18.5858 14.5858C18.2107 14.9609 18 15.4696 18 16C18 16.5304 18.2107 17.0391 18.5858 17.4142C18.9609 17.7893 19.4696 18 20 18C20.5304 18 21.0391 17.7893 21.4142 17.4142C21.7893 17.0391 22 16.5304 22 16C22 15.4696 21.7893 14.9609 21.4142 14.5858C21.0391 14.2107 20.5304 14 20 14ZM12 8C11.4696 8 10.9609 8.21072 10.5858 8.58579C10.2107 8.96086 10 9.46957 10 10C10 10.5304 10.2107 11.0391 10.5858 11.4142C10.9609 11.7893 11.4696 12 12 12C12.5304 12 13.0391 11.7893 13.4142 11.4142C13.7893 11.0391 14 10.5304 14 10C14 9.46957 13.7893 8.96086 13.4142 8.58579C13.0391 8.21072 12.5304 8 12 8ZM20 8C19.4696 8 18.9609 8.21072 18.5858 8.58579C18.2107 8.96086 18 9.46957 18 10C18 10.5304 18.2107 11.0391 18.5858 11.4142C18.9609 11.7893 19.4696 12 20 12C20.5304 12 21.0391 11.7893 21.4142 11.4142C21.7893 11.0391 22 10.5304 22 10C22 9.46957 21.7893 8.96086 21.4142 8.58579C21.0391 8.21072 20.5304 8 20 8Z" fill="current"/>
</svg>
