<svg width="45" height="45" viewBox="0 0 45 45" fill="none" xmlns="http://www.w3.org/2000/svg">
<g filter="url(#filter0_d_1234_20595)">
<rect width="45" height="45" rx="22.5" fill="#3396F4"/>
<g clip-path="url(#clip0_1234_20595)">
<path d="M34.4167 19.375H28.8508C29.4457 20.8198 29.1846 22.5586 28.0539 23.7363L21.6667 30.3896V32.6562C21.6667 33.9507 22.6741 35 23.9167 35H34.4167C35.6594 35 36.6667 33.9507 36.6667 32.6562V21.7188C36.6667 20.4243 35.6594 19.375 34.4167 19.375ZM29.1667 28.3594C28.5457 28.3594 28.0417 27.8345 28.0417 27.1875C28.0417 26.54 28.5457 26.0156 29.1667 26.0156C29.7878 26.0156 30.2917 26.54 30.2917 27.1875C30.2917 27.8345 29.7878 28.3594 29.1667 28.3594ZM26.9932 19.2432L18.7933 10.7017C17.8952 9.76611 16.4388 9.76611 15.5407 10.7017L7.34034 19.2432C6.44222 20.1787 6.44222 21.6958 7.34034 22.6313L15.5402 31.1733C16.4383 32.1089 17.8947 32.1089 18.7928 31.1733L26.9932 22.6318C27.8913 21.6958 27.8913 20.1787 26.9932 19.2432V19.2432ZM11.1667 22.1094C10.5457 22.1094 10.0417 21.5845 10.0417 20.9375C10.0417 20.29 10.5457 19.7656 11.1667 19.7656C11.7878 19.7656 12.2917 20.29 12.2917 20.9375C12.2917 21.5845 11.7878 22.1094 11.1667 22.1094ZM17.1667 28.3594C16.5457 28.3594 16.0417 27.8345 16.0417 27.1875C16.0417 26.54 16.5457 26.0156 17.1667 26.0156C17.7878 26.0156 18.2917 26.54 18.2917 27.1875C18.2917 27.8345 17.7878 28.3594 17.1667 28.3594ZM17.1667 22.1094C16.5457 22.1094 16.0417 21.5845 16.0417 20.9375C16.0417 20.29 16.5457 19.7656 17.1667 19.7656C17.7878 19.7656 18.2917 20.29 18.2917 20.9375C18.2917 21.5845 17.7878 22.1094 17.1667 22.1094ZM17.1667 15.8594C16.5457 15.8594 16.0417 15.3345 16.0417 14.6875C16.0417 14.04 16.5457 13.5156 17.1667 13.5156C17.7878 13.5156 18.2917 14.04 18.2917 14.6875C18.2917 15.3345 17.7878 15.8594 17.1667 15.8594ZM23.1667 22.1094C22.5457 22.1094 22.0417 21.5845 22.0417 20.9375C22.0417 20.29 22.5457 19.7656 23.1667 19.7656C23.7878 19.7656 24.2917 20.29 24.2917 20.9375C24.2917 21.5845 23.7878 22.1094 23.1667 22.1094Z" fill="#FAFAFA"/>
</g>
</g>
<defs>
<filter id="filter0_d_1234_20595" x="0" y="0" width="49" height="49" filterUnits="userSpaceOnUse" color-interpolation-filters="sRGB">
<feFlood flood-opacity="0" result="BackgroundImageFix"/>
<feColorMatrix in="SourceAlpha" type="matrix" values="0 0 0 0 0 0 0 0 0 0 0 0 0 0 0 0 0 0 127 0" result="hardAlpha"/>
<feOffset dx="2" dy="2"/>
<feGaussianBlur stdDeviation="1"/>
<feComposite in2="hardAlpha" operator="out"/>
<feColorMatrix type="matrix" values="0 0 0 0 0.85 0 0 0 0 0.85 0 0 0 0 0.85 0 0 0 0.25 0"/>
<feBlend mode="normal" in2="BackgroundImageFix" result="effect1_dropShadow_1234_20595"/>
<feBlend mode="normal" in="SourceGraphic" in2="effect1_dropShadow_1234_20595" result="shape"/>
</filter>
<clipPath id="clip0_1234_20595">
<rect width="30" height="25" fill="white" transform="translate(6.66675 10)"/>
</clipPath>
</defs>
</svg>
