<svg width="34" height="32" viewBox="0 0 34 32" fill="none" xmlns="http://www.w3.org/2000/svg">
<path d="M16.9999 30.9999C15.9249 30.0466 14.7099 29.0549 13.4249 27.9999H13.4083C8.88327 24.2999 3.75494 20.1133 1.48994 15.0966C0.746604 13.4999 0.351604 11.7633 0.333271 9.99992C0.330802 8.80322 0.567457 7.61809 1.02934 6.51412C1.49123 5.41015 2.16903 4.40959 3.02295 3.5712C3.87687 2.7328 4.8897 2.07347 6.00196 1.63192C7.11422 1.19037 8.30349 0.975493 9.49994 0.999918C11.4677 1.00303 13.393 1.57172 15.0466 2.63825C15.7732 3.10987 16.4306 3.68034 16.9999 4.33325C17.5733 3.68325 18.2299 3.11325 18.9549 2.63825C20.6078 1.57151 22.5327 1.00278 24.4999 0.999918C25.6964 0.975493 26.8857 1.19037 27.9979 1.63192C29.1102 2.07347 30.123 2.7328 30.9769 3.5712C31.8308 4.40959 32.5086 5.41015 32.9705 6.51412C33.4324 7.61809 33.6691 8.80322 33.6666 9.99992C33.6496 11.7646 33.2552 13.5052 32.5099 15.1049C30.2449 20.1216 25.1183 24.3066 20.5933 27.9999L20.5766 28.0133C19.2899 29.0616 18.0766 30.0533 17.0016 31.0133L16.9999 30.9999ZM9.49994 4.33325C7.94746 4.31382 6.45006 4.90799 5.33327 5.98659C4.80069 6.50972 4.37871 7.13457 4.0924 7.82401C3.80609 8.51345 3.66129 9.25341 3.6666 9.99992C3.68494 11.2833 3.9766 12.5499 4.51994 13.7133C5.58915 15.8777 7.03181 17.8366 8.7816 19.4999C10.4333 21.1666 12.3333 22.7799 13.9766 24.1366C14.4316 24.5116 14.8949 24.8899 15.3583 25.2683L15.6499 25.5066C16.0949 25.8699 16.5549 26.2466 16.9999 26.6166L17.0216 26.5966L17.0316 26.5883H17.0416L17.0566 26.5766H17.0733L17.1033 26.5516L17.1716 26.4966L17.1833 26.4866L17.2016 26.4733H17.2116L17.2266 26.4599L18.3333 25.5516L18.6233 25.3132C19.0916 24.9316 19.5549 24.5532 20.0099 24.1782C21.6533 22.8216 23.5549 21.2099 25.2066 19.5349C26.9567 17.8726 28.3994 15.9141 29.4683 13.7499C30.0216 12.5766 30.3183 11.2966 30.3349 9.99992C30.3382 9.25554 30.1922 8.51807 29.9056 7.83105C29.6191 7.14404 29.1978 6.5214 28.6666 5.99992C27.552 4.91645 26.0543 4.31739 24.4999 4.33325C23.5622 4.32528 22.6333 4.51585 21.7744 4.89244C20.9156 5.26902 20.1461 5.8231 19.5166 6.51825L16.9999 9.41825L14.4833 6.51825C13.8538 5.8231 13.0843 5.26902 12.2254 4.89244C11.3666 4.51585 10.4377 4.32528 9.49994 4.33325Z" fill="#3396F4"/>
</svg>
