<svg width="24" height="25" viewBox="0 0 24 25" fill="none" xmlns="http://www.w3.org/2000/svg">
<g clip-path="url(#clip0_385_5112)">
<path fill-rule="evenodd" clip-rule="evenodd" d="M0 12.069C0 18.035 4.333 22.996 10 24.002V15.335H7V12.002H10V9.33495C10 6.33495 11.933 4.66895 14.667 4.66895C15.533 4.66895 16.467 4.80195 17.333 4.93495V8.00195H15.8C14.333 8.00195 14 8.73495 14 9.66895V12.002H17.2L16.667 15.335H14V24.002C19.667 22.996 24 18.036 24 12.069C24 5.43195 18.6 0.00195312 12 0.00195312C5.4 0.00195312 0 5.43195 0 12.069Z" fill="#999999"/>
</g>
<defs>
<clipPath id="clip0_385_5112">
<rect width="24" height="24" fill="white" transform="translate(0 0.00195312)"/>
</clipPath>
</defs>
</svg>
