<svg width="34" height="31" viewBox="0 0 34 31" fill="none" xmlns="http://www.w3.org/2000/svg">
<path d="M0.333252 10.0001C0.333047 8.80403 0.571245 7.61993 1.03392 6.51699C1.4966 5.41405 2.17448 4.4144 3.02794 3.57646C3.8814 2.73852 4.89332 2.07909 6.00456 1.63673C7.1158 1.19436 8.30407 0.977929 9.49992 1.00008C10.9149 0.992564 12.3152 1.28586 13.6082 1.86053C14.9012 2.4352 16.0573 3.27811 16.9999 4.33341C17.9425 3.27811 19.0986 2.4352 20.3916 1.86053C21.6846 1.28586 23.085 0.992564 24.4999 1.00008C25.6958 0.977929 26.884 1.19436 27.9953 1.63673C29.1065 2.07909 30.1184 2.73852 30.9719 3.57646C31.8254 4.4144 32.5032 5.41405 32.9659 6.51699C33.4286 7.61993 33.6668 8.80403 33.6666 10.0001C33.6666 18.9267 23.0349 25.6667 16.9999 31.0001C10.9783 25.6217 0.333252 18.9334 0.333252 10.0001Z" fill="#3396F4"/>
</svg>
