<svg width="30" height="31" viewBox="0 0 30 31" fill="none" xmlns="http://www.w3.org/2000/svg">
<path d="M26.1836 10.3833C26.171 9.43655 25.9938 8.49924 25.6598 7.61327C25.3703 6.86596 24.928 6.18727 24.3613 5.62056C23.7946 5.05385 23.1159 4.61158 22.3686 4.32202C21.494 3.99372 20.5701 3.8162 19.6361 3.79702C18.4336 3.74327 18.0523 3.72827 14.9998 3.72827C11.9473 3.72827 11.5561 3.72827 10.3623 3.79702C9.42879 3.81634 8.50528 3.99386 7.63109 4.32202C6.88367 4.61138 6.20487 5.05358 5.63813 5.62031C5.0714 6.18705 4.62921 6.86584 4.33984 7.61327C4.01088 8.48719 3.83375 9.41091 3.81609 10.3445C3.76234 11.5483 3.74609 11.9295 3.74609 14.982C3.74609 18.0345 3.74609 18.4245 3.81609 19.6195C3.83484 20.5545 4.01109 21.477 4.33984 22.3533C4.62969 23.1005 5.07221 23.779 5.63914 24.3455C6.20606 24.912 6.88492 25.354 7.63234 25.6433C8.50414 25.9848 9.42781 26.175 10.3636 26.2058C11.5673 26.2595 11.9486 26.2758 15.0011 26.2758C18.0536 26.2758 18.4448 26.2758 19.6386 26.2058C20.5725 26.1874 21.4965 26.0103 22.3711 25.682C23.1182 25.3921 23.7967 24.9497 24.3634 24.3831C24.9301 23.8164 25.3724 23.1379 25.6623 22.3908C25.9911 21.5158 26.1673 20.5933 26.1861 19.657C26.2398 18.4545 26.2561 18.0733 26.2561 15.0195C26.2536 11.967 26.2536 11.5795 26.1836 10.3833ZM14.9923 20.7545C11.7998 20.7545 9.21359 18.1683 9.21359 14.9758C9.21359 11.7833 11.7998 9.19702 14.9923 9.19702C16.525 9.19702 17.9948 9.80585 19.0785 10.8896C20.1623 11.9733 20.7711 13.4432 20.7711 14.9758C20.7711 16.5084 20.1623 17.9782 19.0785 19.062C17.9948 20.1457 16.525 20.7545 14.9923 20.7545ZM21.0011 10.3308C20.8241 10.3309 20.6488 10.2962 20.4852 10.2285C20.3217 10.1609 20.1731 10.0616 20.0479 9.93646C19.9227 9.81131 19.8235 9.66269 19.7558 9.49913C19.6882 9.33557 19.6534 9.16027 19.6536 8.98327C19.6536 8.8064 19.6884 8.63126 19.7561 8.46784C19.8238 8.30443 19.923 8.15596 20.0481 8.03089C20.1732 7.90582 20.3216 7.80661 20.485 7.73892C20.6485 7.67123 20.8236 7.6364 21.0005 7.6364C21.1773 7.6364 21.3525 7.67123 21.5159 7.73892C21.6793 7.80661 21.8278 7.90582 21.9529 8.03089C22.0779 8.15596 22.1771 8.30443 22.2448 8.46784C22.3125 8.63126 22.3473 8.8064 22.3473 8.98327C22.3473 9.72827 21.7448 10.3308 21.0011 10.3308Z" fill="#999999"/>
<path d="M14.9925 18.7294C17.0657 18.7294 18.7463 17.0488 18.7463 14.9757C18.7463 12.9025 17.0657 11.2219 14.9925 11.2219C12.9194 11.2219 11.2388 12.9025 11.2388 14.9757C11.2388 17.0488 12.9194 18.7294 14.9925 18.7294Z" fill="#999999"/>
</svg>
