<svg width="30" height="31" viewBox="0 0 30 31" fill="none" xmlns="http://www.w3.org/2000/svg">
<path d="M15 3.75195C22.2487 3.75195 28.125 8.33195 28.125 13.9832C28.125 19.6332 22.2487 24.2132 15 24.2132C14.2782 24.2136 13.5572 24.1677 12.8412 24.0757L7.33125 27.6795C6.705 28.0107 6.48375 27.9745 6.74125 27.1632L7.85625 22.5657C4.25625 20.7407 1.875 17.5782 1.875 13.9832C1.875 8.3332 7.75125 3.75195 15 3.75195ZM22.3837 13.827L24.2213 12.047C24.3273 11.9368 24.3864 11.7899 24.3862 11.637C24.3861 11.4841 24.3266 11.3373 24.2203 11.2275C24.114 11.1176 23.9692 11.0533 23.8164 11.0481C23.6636 11.0428 23.5148 11.0971 23.4013 11.1995L20.9912 13.532V11.6045C20.9912 11.448 20.9291 11.2979 20.8184 11.1873C20.7078 11.0766 20.5577 11.0145 20.4012 11.0145C20.2448 11.0145 20.0947 11.0766 19.9841 11.1873C19.8734 11.2979 19.8113 11.448 19.8113 11.6045V14.8007C19.7891 14.8919 19.7891 14.987 19.8113 15.0782V16.877C19.8113 17.0334 19.8734 17.1835 19.9841 17.2941C20.0947 17.4048 20.2448 17.467 20.4012 17.467C20.5577 17.467 20.7078 17.4048 20.8184 17.2941C20.9291 17.1835 20.9912 17.0334 20.9912 16.877V15.1732L21.525 14.657L23.31 17.1982C23.3546 17.2616 23.4112 17.3157 23.4766 17.3573C23.5421 17.3988 23.6151 17.4271 23.6915 17.4404C23.7679 17.4538 23.8461 17.4519 23.9218 17.4351C23.9975 17.4182 24.0691 17.3865 24.1325 17.342C24.1959 17.2974 24.25 17.2408 24.2916 17.1753C24.3331 17.1098 24.3614 17.0369 24.3747 16.9605C24.3881 16.8841 24.3862 16.8058 24.3693 16.7302C24.3525 16.6545 24.3208 16.5829 24.2762 16.5195L22.3837 13.8257V13.827ZM18.6863 16.232H16.8612V11.6232C16.8543 11.4716 16.7891 11.3285 16.6794 11.2237C16.5696 11.1188 16.4237 11.0604 16.2719 11.0604C16.1201 11.0604 15.9742 11.1188 15.8644 11.2237C15.7546 11.3285 15.6895 11.4716 15.6825 11.6232V16.822C15.6825 17.147 15.945 17.412 16.2712 17.412H18.6863C18.8427 17.412 18.9928 17.3498 19.1034 17.2391C19.2141 17.1285 19.2762 16.9784 19.2762 16.822C19.2762 16.6655 19.2141 16.5154 19.1034 16.4048C18.9928 16.2941 18.8427 16.232 18.6863 16.232ZM11.365 14.867L12.235 12.7332L13.0325 14.867H11.365ZM14.5187 15.477L14.5212 15.457C14.521 15.3083 14.4642 15.1653 14.3625 15.057L13.055 11.557C13.0002 11.3902 12.8958 11.2441 12.7557 11.1382C12.6157 11.0323 12.4467 10.9717 12.2713 10.9645C12.0946 10.9637 11.9218 11.0167 11.776 11.1165C11.6302 11.2163 11.5182 11.3582 11.455 11.5232L9.37875 16.617C9.34945 16.6887 9.33456 16.7655 9.33494 16.843C9.33533 16.9205 9.35097 16.9971 9.38097 17.0686C9.41097 17.14 9.45476 17.2048 9.50982 17.2594C9.56488 17.3139 9.63014 17.357 9.70187 17.3863C9.77361 17.4156 9.85041 17.4305 9.9279 17.4301C10.0054 17.4298 10.082 17.4141 10.1535 17.3841C10.2249 17.3541 10.2898 17.3103 10.3443 17.2553C10.3988 17.2002 10.4419 17.1349 10.4712 17.0632L10.8837 16.047H13.4713L13.845 17.047C13.8704 17.1217 13.9106 17.1906 13.9631 17.2495C14.0156 17.3085 14.0794 17.3563 14.1507 17.3901C14.2221 17.424 14.2995 17.4431 14.3784 17.4465C14.4572 17.4499 14.536 17.4374 14.6099 17.4098C14.6839 17.3822 14.7516 17.34 14.8089 17.2858C14.8663 17.2315 14.9122 17.1663 14.9439 17.094C14.9756 17.0217 14.9925 16.9438 14.9936 16.8649C14.9946 16.7859 14.9798 16.7076 14.95 16.6345L14.5187 15.477ZM10.3663 11.6295C10.3663 11.4732 10.3043 11.3233 10.1939 11.2127C10.0835 11.1021 9.93376 11.0398 9.7775 11.0395H5.72125C5.56477 11.0395 5.4147 11.1016 5.30406 11.2123C5.19341 11.3229 5.13125 11.473 5.13125 11.6295C5.13125 11.7859 5.19341 11.936 5.30406 12.0466C5.4147 12.1573 5.56477 12.2195 5.72125 12.2195H7.17125V16.8895C7.17125 17.0459 7.23341 17.196 7.34406 17.3066C7.4547 17.4173 7.60477 17.4795 7.76125 17.4795C7.91773 17.4795 8.0678 17.4173 8.17844 17.3066C8.28909 17.196 8.35125 17.0459 8.35125 16.8895V12.2195H9.77625C9.93273 12.2195 10.0828 12.1573 10.1934 12.0466C10.3041 11.936 10.3663 11.7859 10.3663 11.6295Z" fill="#999999"/>
</svg>
