<svg width="current" height="current" viewBox="0 0 32 32" fill="none" xmlns="http://www.w3.org/2000/svg">
<path d="M18.5733 13.4266C17.2082 12.062 15.3569 11.2954 13.4267 11.2954C11.4964 11.2954 9.64519 12.062 8.28001 13.4266L3.13168 18.5733C1.76647 19.9385 0.999512 21.7901 0.999512 23.7208C0.999512 25.6515 1.76647 27.5031 3.13168 28.8683C4.49688 30.2335 6.34849 31.0004 8.27918 31.0004C10.2099 31.0004 12.0615 30.2335 13.4267 28.8683L16 26.2949" stroke="#3396F4" stroke-width="2" stroke-linecap="round" stroke-linejoin="round"/>
<path d="M13.4268 18.5733C14.7919 19.938 16.6432 20.7045 18.5734 20.7045C20.5037 20.7045 22.3549 19.938 23.7201 18.5733L28.8684 13.4267C30.2336 12.0615 31.0006 10.2099 31.0006 8.27918C31.0006 6.34849 30.2336 4.49688 28.8684 3.13168C27.5032 1.76647 25.6516 0.999512 23.7209 0.999512C21.7902 0.999512 19.9386 1.76647 18.5734 3.13168L16.0001 5.70501" stroke="#3396F4" stroke-width="2" stroke-linecap="round" stroke-linejoin="round"/>
</svg>
