<svg width="40" height="40" viewBox="0 0 40 40" fill="none" xmlns="http://www.w3.org/2000/svg">
<path d="M31.6667 5H8.33333C6.48333 5 5 6.48333 5 8.33333V15H8.33333V8.33333H31.6667V31.6667H8.33333V25H5V31.6667C5 32.5507 5.35119 33.3986 5.97631 34.0237C6.60143 34.6488 7.44928 35 8.33333 35H31.6667C32.5507 35 33.3986 34.6488 34.0237 34.0237C34.6488 33.3986 35 32.5507 35 31.6667V8.33333C35 7.44928 34.6488 6.60143 34.0237 5.97631C33.3986 5.35119 32.5507 5 31.6667 5ZM16.8 25.9667L19.1667 28.3333L27.5 20L19.1667 11.6667L16.8 14.0167L21.1167 18.3333H5V21.6667H21.1167L16.8 25.9667Z" fill="#11416F"/>
</svg>
