<svg width="24" height="24" viewBox="0 0 24 24" fill="none" xmlns="http://www.w3.org/2000/svg">
<g clip-path="url(#clip0_1200_4801)">
<path d="M4.46105 4.20661C5.20355 4.81186 5.4848 4.76911 6.88655 4.67536L20.1015 3.88261C20.3828 3.88261 20.1488 3.60136 20.0543 3.55411L17.859 1.96786C17.4413 1.63936 16.8788 1.26886 15.804 1.35811L3.0113 2.29561C2.54255 2.33836 2.4488 2.57311 2.6363 2.76061L4.46105 4.20661ZM5.2538 7.28911V21.1911C5.2538 21.9374 5.62505 22.2186 6.46505 22.1714L20.9888 21.3314C21.8288 21.2841 21.9263 20.7726 21.9263 20.1636V6.35536C21.9263 5.74561 21.6915 5.42161 21.1763 5.46886L6.0008 6.35536C5.4383 6.40261 5.25455 6.67936 5.25455 7.28536L5.2538 7.28911ZM19.59 8.03086C19.6838 8.45311 19.59 8.87086 19.1678 8.92186L18.4688 9.06286V19.3244C17.859 19.6529 17.301 19.8404 16.836 19.8404C16.086 19.8404 15.8985 19.6056 15.3398 18.9066L10.7618 11.7194V18.6726L12.2108 19.0011C12.2108 19.0011 12.2108 19.8411 11.043 19.8411L7.8203 20.0286C7.72655 19.8411 7.8203 19.3724 8.1488 19.2824L8.9888 19.0476V9.85636L7.82105 9.76261C7.7273 9.34036 7.96205 8.73511 8.6138 8.68861L12.0705 8.45386L16.836 15.7349V9.29311L15.621 9.15211C15.5273 8.64061 15.8985 8.26561 16.3673 8.22211L19.59 8.03086ZM1.9373 1.03486L15.246 0.0546103C16.8788 -0.0863896 17.301 0.00736037 18.3278 0.75361L22.578 3.74161C23.277 4.25311 23.5118 4.39411 23.5118 4.95286V21.3321C23.5118 22.3596 23.1368 22.9649 21.8318 23.0586L6.37055 23.9924C5.39405 24.0396 4.9253 23.8986 4.4093 23.2461L1.2803 19.1834C0.721549 18.4371 0.487549 17.8784 0.487549 17.2266V2.66836C0.487549 1.82836 0.862549 1.12936 1.93655 1.03561L1.9373 1.03486Z" fill="#999999"/>
</g>
<defs>
<clipPath id="clip0_1200_4801">
<rect width="24" height="24" fill="white"/>
</clipPath>
</defs>
</svg>
