<svg width="42" height="42" viewBox="0 0 42 42" fill="current" xmlns="http://www.w3.org/2000/svg">
<path d="M40.897 19.896H37.5445C37 11.6085 30.3827 4.983 22.1028 4.43799V1.08207C22.097 0.79311 21.9783 0.517938 21.7721 0.315628C21.5659 0.113319 21.2887 0 21 0C20.7113 0 20.4341 0.113319 20.2279 0.315628C20.0217 0.517938 19.903 0.79311 19.8972 1.08207V4.43799C11.6169 4.983 4.99995 11.6081 4.4555 19.896H1.10304C0.810496 19.896 0.529933 20.0124 0.323073 20.2195C0.116213 20.4265 0 20.7074 0 21.0002C0 21.2931 0.116213 21.5739 0.323073 21.781C0.529933 21.9881 0.810496 22.1044 1.10304 22.1044H4.45506C4.99862 30.3933 11.616 37.0174 19.8972 37.562V40.9179C19.903 41.2069 20.0217 41.4821 20.2279 41.6844C20.4341 41.8867 20.7113 42 21 42C21.2887 42 21.5659 41.8867 21.7721 41.6844C21.9783 41.4821 22.097 41.2069 22.1028 40.9179V37.562C30.3836 37.0174 37.0009 30.3928 37.5449 22.1044H40.897C41.1895 22.1044 41.4701 21.9881 41.6769 21.781C41.8838 21.5739 42 21.2931 42 21.0002C42 20.7074 41.8838 20.4265 41.6769 20.2195C41.4701 20.0124 41.1895 19.896 40.897 19.896ZM19.8967 33.1502C14.0534 32.6229 9.38867 27.9529 8.86236 22.1044H11.0693C11.5788 26.746 15.2599 30.4309 19.8967 30.9409V33.1502ZM19.8967 11.0595C15.2599 11.5696 11.5788 15.2544 11.0693 19.896H8.86236C9.38955 14.0484 14.0538 9.37802 19.8963 8.85028L19.8967 11.0595ZM22.1028 8.85072C27.9453 9.37802 32.6096 14.0484 33.1368 19.896H30.9302C30.4207 15.254 26.7397 11.5691 22.1028 11.0595V8.85072ZM22.1028 33.1502V30.9414C26.7397 30.4313 30.4207 26.7465 30.9302 22.1048H33.1368C32.6105 27.9529 27.9457 32.6224 22.1028 33.1502Z" fill="current"/>
</svg>
