<svg width="39" height="52" viewBox="0 0 39 52" fill="none" xmlns="http://www.w3.org/2000/svg">
<path d="M19.5 0C14.3301 0.00614444 9.37359 2.16049 5.7179 5.99041C2.06221 9.82033 0.00586492 15.013 0 20.4294C0 37.9104 17.7273 51.1198 18.4807 51.677C18.7826 51.8876 19.1373 52 19.5 52C19.8627 52 20.2174 51.8876 20.5193 51.677C21.2727 51.1198 39 37.9104 39 20.4294C38.9941 15.013 36.9378 9.82033 33.2821 5.99041C29.6264 2.16049 24.6699 0.00614444 19.5 0ZM19.5 13.0005C20.9025 13.0005 22.2734 13.4362 23.4395 14.2525C24.6056 15.0688 25.5144 16.229 26.0511 17.5865C26.5878 18.9439 26.7283 20.4376 26.4547 21.8787C26.1811 23.3197 25.5057 24.6434 24.514 25.6824C23.5223 26.7213 22.2589 27.4288 20.8834 27.7155C19.5079 28.0021 18.0821 27.855 16.7864 27.2927C15.4907 26.7305 14.3833 25.7783 13.6041 24.5566C12.825 23.3349 12.4091 21.8987 12.4091 20.4294C12.4091 18.4591 13.1562 16.5695 14.486 15.1764C15.8158 13.7832 17.6194 13.0005 19.5 13.0005Z" fill="#3396F4"/>
</svg>
