<svg width="27" height="19" viewBox="0 0 27 19" fill="none" xmlns="http://www.w3.org/2000/svg">
<path d="M23.2252 7.375C24.2018 7.70052 24.983 8.28646 25.5689 9.13281C26.1549 9.91406 26.4478 10.793 26.4478 11.7695C26.513 12.7461 26.2525 13.7227 25.6666 14.6992C25.1458 15.6107 24.2994 16.3919 23.1275 17.043C21.2395 18.0195 19.5794 18.2799 18.1471 17.8242C16.7148 17.3034 15.7057 16.5221 15.1197 15.4805C14.7942 14.9596 14.5338 14.2435 14.3385 13.332C14.2083 12.4206 14.1432 11.4766 14.1432 10.5C14.2083 9.45833 14.3385 8.44922 14.5338 7.47266C14.7291 6.49609 15.0221 5.68229 15.4127 5.03125C15.7382 4.57552 16.1288 4.08724 16.5846 3.56641C16.9752 3.11068 17.4309 2.65495 17.9518 2.19922C18.5377 1.74349 19.1887 1.32031 19.9049 0.929688L23.3228 1.125C22.8671 1.64583 22.4439 2.13411 22.0533 2.58984C21.7278 2.98047 21.4348 3.33854 21.1744 3.66406C20.914 3.98958 20.6536 4.28255 20.3932 4.54297C19.9374 4.9987 19.5794 5.45443 19.3189 5.91016C19.0585 6.30078 18.8307 6.72396 18.6353 7.17969C18.5051 7.63542 18.5051 8.09115 18.6353 8.54688C19.4817 7.63542 20.4583 7.17969 21.565 7.17969C22.0859 7.17969 22.6393 7.24479 23.2252 7.375ZM9.74863 7.86328C10.6601 8.38411 11.3111 9.10026 11.7018 10.0117C12.1575 10.8581 12.3202 11.7695 12.19 12.7461C12.0598 13.7227 11.6367 14.6341 10.9205 15.4805C10.2695 16.3268 9.2929 16.9779 7.99082 17.4336C5.97259 18.0846 4.31243 18.0521 3.01035 17.3359C1.70827 16.5547 0.82936 15.6107 0.373631 14.5039C0.178318 13.918 0.0806618 13.1693 0.0806618 12.2578C0.0806618 11.3464 0.178318 10.4023 0.373631 9.42578C0.568943 8.44922 0.82936 7.50521 1.15488 6.59375C1.4804 5.68229 1.90358 4.93359 2.42441 4.34766C2.81504 3.89193 3.27077 3.46875 3.7916 3.07812C4.24733 2.7526 4.76816 2.39453 5.3541 2.00391C6.00514 1.61328 6.72129 1.25521 7.50254 0.929688L10.9205 1.80859C10.3997 2.26432 9.91139 2.65495 9.45566 2.98047C9.06504 3.30599 8.70696 3.59896 8.38144 3.85938C8.05592 4.11979 7.7304 4.38021 7.40488 4.64062C6.94915 5.03125 6.55853 5.42188 6.23301 5.8125C5.90748 6.13802 5.61452 6.52865 5.3541 6.98438C5.09368 7.375 4.99603 7.79818 5.06113 8.25391C5.58196 7.86328 6.1028 7.63542 6.62363 7.57031C7.20957 7.4401 7.7304 7.40755 8.18613 7.47266C8.70696 7.53776 9.2278 7.66797 9.74863 7.86328Z" fill="#BFBFBF"/>
<path d="M23.2252 7.375C24.2018 7.70052 24.983 8.28646 25.5689 9.13281C26.1549 9.91406 26.4478 10.793 26.4478 11.7695C26.513 12.7461 26.2525 13.7227 25.6666 14.6992C25.1458 15.6107 24.2994 16.3919 23.1275 17.043C21.2395 18.0195 19.5794 18.2799 18.1471 17.8242C16.7148 17.3034 15.7057 16.5221 15.1197 15.4805C14.7942 14.9596 14.5338 14.2435 14.3385 13.332C14.2083 12.4206 14.1432 11.4766 14.1432 10.5C14.2083 9.45833 14.3385 8.44922 14.5338 7.47266C14.7291 6.49609 15.0221 5.68229 15.4127 5.03125C15.7382 4.57552 16.1288 4.08724 16.5846 3.56641C16.9752 3.11068 17.4309 2.65495 17.9518 2.19922C18.5377 1.74349 19.1887 1.32031 19.9049 0.929688L23.3228 1.125C22.8671 1.64583 22.4439 2.13411 22.0533 2.58984C21.7278 2.98047 21.4348 3.33854 21.1744 3.66406C20.914 3.98958 20.6536 4.28255 20.3932 4.54297C19.9374 4.9987 19.5794 5.45443 19.3189 5.91016C19.0585 6.30078 18.8307 6.72396 18.6353 7.17969C18.5051 7.63542 18.5051 8.09115 18.6353 8.54688C19.4817 7.63542 20.4583 7.17969 21.565 7.17969C22.0859 7.17969 22.6393 7.24479 23.2252 7.375ZM9.74863 7.86328C10.6601 8.38411 11.3111 9.10026 11.7018 10.0117C12.1575 10.8581 12.3202 11.7695 12.19 12.7461C12.0598 13.7227 11.6367 14.6341 10.9205 15.4805C10.2695 16.3268 9.2929 16.9779 7.99082 17.4336C5.97259 18.0846 4.31243 18.0521 3.01035 17.3359C1.70827 16.5547 0.82936 15.6107 0.373631 14.5039C0.178318 13.918 0.0806618 13.1693 0.0806618 12.2578C0.0806618 11.3464 0.178318 10.4023 0.373631 9.42578C0.568943 8.44922 0.82936 7.50521 1.15488 6.59375C1.4804 5.68229 1.90358 4.93359 2.42441 4.34766C2.81504 3.89193 3.27077 3.46875 3.7916 3.07812C4.24733 2.7526 4.76816 2.39453 5.3541 2.00391C6.00514 1.61328 6.72129 1.25521 7.50254 0.929688L10.9205 1.80859C10.3997 2.26432 9.91139 2.65495 9.45566 2.98047C9.06504 3.30599 8.70696 3.59896 8.38144 3.85938C8.05592 4.11979 7.7304 4.38021 7.40488 4.64062C6.94915 5.03125 6.55853 5.42188 6.23301 5.8125C5.90748 6.13802 5.61452 6.52865 5.3541 6.98438C5.09368 7.375 4.99603 7.79818 5.06113 8.25391C5.58196 7.86328 6.1028 7.63542 6.62363 7.57031C7.20957 7.4401 7.7304 7.40755 8.18613 7.47266C8.70696 7.53776 9.2278 7.66797 9.74863 7.86328Z" fill="#BFBFBF"/>
<path d="M23.2252 7.375C24.2018 7.70052 24.983 8.28646 25.5689 9.13281C26.1549 9.91406 26.4478 10.793 26.4478 11.7695C26.513 12.7461 26.2525 13.7227 25.6666 14.6992C25.1458 15.6107 24.2994 16.3919 23.1275 17.043C21.2395 18.0195 19.5794 18.2799 18.1471 17.8242C16.7148 17.3034 15.7057 16.5221 15.1197 15.4805C14.7942 14.9596 14.5338 14.2435 14.3385 13.332C14.2083 12.4206 14.1432 11.4766 14.1432 10.5C14.2083 9.45833 14.3385 8.44922 14.5338 7.47266C14.7291 6.49609 15.0221 5.68229 15.4127 5.03125C15.7382 4.57552 16.1288 4.08724 16.5846 3.56641C16.9752 3.11068 17.4309 2.65495 17.9518 2.19922C18.5377 1.74349 19.1887 1.32031 19.9049 0.929688L23.3228 1.125C22.8671 1.64583 22.4439 2.13411 22.0533 2.58984C21.7278 2.98047 21.4348 3.33854 21.1744 3.66406C20.914 3.98958 20.6536 4.28255 20.3932 4.54297C19.9374 4.9987 19.5794 5.45443 19.3189 5.91016C19.0585 6.30078 18.8307 6.72396 18.6353 7.17969C18.5051 7.63542 18.5051 8.09115 18.6353 8.54688C19.4817 7.63542 20.4583 7.17969 21.565 7.17969C22.0859 7.17969 22.6393 7.24479 23.2252 7.375ZM9.74863 7.86328C10.6601 8.38411 11.3111 9.10026 11.7018 10.0117C12.1575 10.8581 12.3202 11.7695 12.19 12.7461C12.0598 13.7227 11.6367 14.6341 10.9205 15.4805C10.2695 16.3268 9.2929 16.9779 7.99082 17.4336C5.97259 18.0846 4.31243 18.0521 3.01035 17.3359C1.70827 16.5547 0.82936 15.6107 0.373631 14.5039C0.178318 13.918 0.0806618 13.1693 0.0806618 12.2578C0.0806618 11.3464 0.178318 10.4023 0.373631 9.42578C0.568943 8.44922 0.82936 7.50521 1.15488 6.59375C1.4804 5.68229 1.90358 4.93359 2.42441 4.34766C2.81504 3.89193 3.27077 3.46875 3.7916 3.07812C4.24733 2.7526 4.76816 2.39453 5.3541 2.00391C6.00514 1.61328 6.72129 1.25521 7.50254 0.929688L10.9205 1.80859C10.3997 2.26432 9.91139 2.65495 9.45566 2.98047C9.06504 3.30599 8.70696 3.59896 8.38144 3.85938C8.05592 4.11979 7.7304 4.38021 7.40488 4.64062C6.94915 5.03125 6.55853 5.42188 6.23301 5.8125C5.90748 6.13802 5.61452 6.52865 5.3541 6.98438C5.09368 7.375 4.99603 7.79818 5.06113 8.25391C5.58196 7.86328 6.1028 7.63542 6.62363 7.57031C7.20957 7.4401 7.7304 7.40755 8.18613 7.47266C8.70696 7.53776 9.2278 7.66797 9.74863 7.86328Z" fill="#BFBFBF"/>
</svg>
