<svg width="27" height="19" viewBox="0 0 27 19" fill="none" xmlns="http://www.w3.org/2000/svg">
<path d="M3.38779 11.5742C2.41123 11.2487 1.62998 10.6953 1.04404 9.91406C0.458103 9.06771 0.132582 8.15625 0.0674782 7.17969C0.0674782 6.20312 0.327895 5.25911 0.848728 4.34766C1.43467 3.37109 2.31357 2.55729 3.48545 1.90625C5.37347 0.864583 7.00107 0.604167 8.36826 1.125C9.80055 1.64583 10.8422 2.42708 11.4933 3.46875C11.8188 3.98958 12.0466 4.70573 12.1769 5.61719C12.3722 6.46354 12.4373 7.40755 12.3722 8.44922C12.3722 9.42578 12.2745 10.4023 12.0792 11.3789C11.8839 12.3555 11.5909 13.1693 11.2003 13.8203C10.8748 14.3411 10.4841 14.862 10.0284 15.3828C9.63779 15.8385 9.14951 16.2943 8.56357 16.75C8.04274 17.2057 7.42425 17.6289 6.7081 18.0195L3.19248 17.7266C3.64821 17.2057 4.07138 16.75 4.46201 16.3594C4.85263 15.9036 5.17816 15.513 5.43857 15.1875C5.69899 14.862 5.95941 14.569 6.21982 14.3086C6.61045 13.8529 6.93597 13.3971 7.19638 12.9414C7.4568 12.5508 7.68467 12.1602 7.87998 11.7695C8.07529 11.3138 8.10784 10.8581 7.97763 10.4023C7.4568 10.9232 6.93597 11.2812 6.41513 11.4766C5.8943 11.6719 5.40602 11.7695 4.95029 11.7695C4.42946 11.8346 3.90862 11.7695 3.38779 11.5742ZM16.8644 10.9883C15.9529 10.5326 15.2693 9.88151 14.8136 9.03516C14.4229 8.1237 14.2927 7.17969 14.4229 6.20312C14.5532 5.22656 14.9438 4.3151 15.5948 3.46875C16.2459 2.6224 17.2224 1.97135 18.5245 1.51562C20.5427 0.799479 22.2029 0.832031 23.505 1.61328C24.8071 2.39453 25.7185 3.33854 26.2394 4.44531C26.4347 5.03125 26.5323 5.77995 26.5323 6.69141C26.5323 7.60286 26.4347 8.54688 26.2394 9.52344C26.044 10.5 25.7511 11.444 25.3604 12.3555C25.0349 13.2669 24.6443 14.0156 24.1886 14.6016C23.7979 15.0573 23.3422 15.4805 22.8214 15.8711C22.3657 16.1966 21.8123 16.5547 21.1612 16.9453C20.5753 17.3359 19.8917 17.6615 19.1104 17.9219L15.6925 17.1406C16.2133 16.6849 16.669 16.2943 17.0597 15.9688C17.5154 15.5781 17.906 15.2526 18.2315 14.9922C18.5571 14.7318 18.8826 14.5039 19.2081 14.3086C19.6638 13.918 20.0545 13.5273 20.38 13.1367C20.7055 12.8112 20.9659 12.4531 21.1612 12.0625C21.4216 11.6068 21.5519 11.1185 21.5519 10.5977C21.031 11.0534 20.4776 11.3464 19.8917 11.4766C19.3709 11.5417 18.8826 11.5417 18.4269 11.4766C17.906 11.4115 17.3852 11.2487 16.8644 10.9883Z" fill="#BFBFBF"/>
<path d="M3.38779 11.5742C2.41123 11.2487 1.62998 10.6953 1.04404 9.91406C0.458103 9.06771 0.132582 8.15625 0.0674782 7.17969C0.0674782 6.20312 0.327895 5.25911 0.848728 4.34766C1.43467 3.37109 2.31357 2.55729 3.48545 1.90625C5.37347 0.864583 7.00107 0.604167 8.36826 1.125C9.80055 1.64583 10.8422 2.42708 11.4933 3.46875C11.8188 3.98958 12.0466 4.70573 12.1769 5.61719C12.3722 6.46354 12.4373 7.40755 12.3722 8.44922C12.3722 9.42578 12.2745 10.4023 12.0792 11.3789C11.8839 12.3555 11.5909 13.1693 11.2003 13.8203C10.8748 14.3411 10.4841 14.862 10.0284 15.3828C9.63779 15.8385 9.14951 16.2943 8.56357 16.75C8.04274 17.2057 7.42425 17.6289 6.7081 18.0195L3.19248 17.7266C3.64821 17.2057 4.07138 16.75 4.46201 16.3594C4.85263 15.9036 5.17816 15.513 5.43857 15.1875C5.69899 14.862 5.95941 14.569 6.21982 14.3086C6.61045 13.8529 6.93597 13.3971 7.19638 12.9414C7.4568 12.5508 7.68467 12.1602 7.87998 11.7695C8.07529 11.3138 8.10784 10.8581 7.97763 10.4023C7.4568 10.9232 6.93597 11.2812 6.41513 11.4766C5.8943 11.6719 5.40602 11.7695 4.95029 11.7695C4.42946 11.8346 3.90862 11.7695 3.38779 11.5742ZM16.8644 10.9883C15.9529 10.5326 15.2693 9.88151 14.8136 9.03516C14.4229 8.1237 14.2927 7.17969 14.4229 6.20312C14.5532 5.22656 14.9438 4.3151 15.5948 3.46875C16.2459 2.6224 17.2224 1.97135 18.5245 1.51562C20.5427 0.799479 22.2029 0.832031 23.505 1.61328C24.8071 2.39453 25.7185 3.33854 26.2394 4.44531C26.4347 5.03125 26.5323 5.77995 26.5323 6.69141C26.5323 7.60286 26.4347 8.54688 26.2394 9.52344C26.044 10.5 25.7511 11.444 25.3604 12.3555C25.0349 13.2669 24.6443 14.0156 24.1886 14.6016C23.7979 15.0573 23.3422 15.4805 22.8214 15.8711C22.3657 16.1966 21.8123 16.5547 21.1612 16.9453C20.5753 17.3359 19.8917 17.6615 19.1104 17.9219L15.6925 17.1406C16.2133 16.6849 16.669 16.2943 17.0597 15.9688C17.5154 15.5781 17.906 15.2526 18.2315 14.9922C18.5571 14.7318 18.8826 14.5039 19.2081 14.3086C19.6638 13.918 20.0545 13.5273 20.38 13.1367C20.7055 12.8112 20.9659 12.4531 21.1612 12.0625C21.4216 11.6068 21.5519 11.1185 21.5519 10.5977C21.031 11.0534 20.4776 11.3464 19.8917 11.4766C19.3709 11.5417 18.8826 11.5417 18.4269 11.4766C17.906 11.4115 17.3852 11.2487 16.8644 10.9883Z" fill="#BFBFBF"/>
<path d="M3.38779 11.5742C2.41123 11.2487 1.62998 10.6953 1.04404 9.91406C0.458103 9.06771 0.132582 8.15625 0.0674782 7.17969C0.0674782 6.20312 0.327895 5.25911 0.848728 4.34766C1.43467 3.37109 2.31357 2.55729 3.48545 1.90625C5.37347 0.864583 7.00107 0.604167 8.36826 1.125C9.80055 1.64583 10.8422 2.42708 11.4933 3.46875C11.8188 3.98958 12.0466 4.70573 12.1769 5.61719C12.3722 6.46354 12.4373 7.40755 12.3722 8.44922C12.3722 9.42578 12.2745 10.4023 12.0792 11.3789C11.8839 12.3555 11.5909 13.1693 11.2003 13.8203C10.8748 14.3411 10.4841 14.862 10.0284 15.3828C9.63779 15.8385 9.14951 16.2943 8.56357 16.75C8.04274 17.2057 7.42425 17.6289 6.7081 18.0195L3.19248 17.7266C3.64821 17.2057 4.07138 16.75 4.46201 16.3594C4.85263 15.9036 5.17816 15.513 5.43857 15.1875C5.69899 14.862 5.95941 14.569 6.21982 14.3086C6.61045 13.8529 6.93597 13.3971 7.19638 12.9414C7.4568 12.5508 7.68467 12.1602 7.87998 11.7695C8.07529 11.3138 8.10784 10.8581 7.97763 10.4023C7.4568 10.9232 6.93597 11.2812 6.41513 11.4766C5.8943 11.6719 5.40602 11.7695 4.95029 11.7695C4.42946 11.8346 3.90862 11.7695 3.38779 11.5742ZM16.8644 10.9883C15.9529 10.5326 15.2693 9.88151 14.8136 9.03516C14.4229 8.1237 14.2927 7.17969 14.4229 6.20312C14.5532 5.22656 14.9438 4.3151 15.5948 3.46875C16.2459 2.6224 17.2224 1.97135 18.5245 1.51562C20.5427 0.799479 22.2029 0.832031 23.505 1.61328C24.8071 2.39453 25.7185 3.33854 26.2394 4.44531C26.4347 5.03125 26.5323 5.77995 26.5323 6.69141C26.5323 7.60286 26.4347 8.54688 26.2394 9.52344C26.044 10.5 25.7511 11.444 25.3604 12.3555C25.0349 13.2669 24.6443 14.0156 24.1886 14.6016C23.7979 15.0573 23.3422 15.4805 22.8214 15.8711C22.3657 16.1966 21.8123 16.5547 21.1612 16.9453C20.5753 17.3359 19.8917 17.6615 19.1104 17.9219L15.6925 17.1406C16.2133 16.6849 16.669 16.2943 17.0597 15.9688C17.5154 15.5781 17.906 15.2526 18.2315 14.9922C18.5571 14.7318 18.8826 14.5039 19.2081 14.3086C19.6638 13.918 20.0545 13.5273 20.38 13.1367C20.7055 12.8112 20.9659 12.4531 21.1612 12.0625C21.4216 11.6068 21.5519 11.1185 21.5519 10.5977C21.031 11.0534 20.4776 11.3464 19.8917 11.4766C19.3709 11.5417 18.8826 11.5417 18.4269 11.4766C17.906 11.4115 17.3852 11.2487 16.8644 10.9883Z" fill="#BFBFBF"/>
</svg>
