<svg width="36" height="36" viewBox="0 0 36 36" fill="current" xmlns="http://www.w3.org/2000/svg">
<g clip-path="url(#clip0_419_5103)">
<path d="M26.4191 23.274C28.5977 20.301 29.5735 16.6151 29.1513 12.9536C28.729 9.29205 26.9398 5.92499 24.1415 3.52602C21.3433 1.12705 17.7425 -0.12691 14.0595 0.0150046C10.3764 0.156919 6.88274 1.68425 4.27743 4.29142C1.67212 6.8986 0.147292 10.3934 0.00801329 14.0765C-0.131266 17.7597 1.12527 21.3596 3.52625 24.1561C5.92722 26.9526 9.29555 28.7394 12.9574 29.1591C16.6192 29.5787 20.3044 28.6003 23.2758 26.4195H23.2736C23.3411 26.5095 23.4131 26.595 23.4941 26.6782L32.1566 35.3407C32.5785 35.7629 33.1508 36.0002 33.7477 36.0004C34.3445 36.0007 34.917 35.7638 35.3392 35.3419C35.7614 34.92 35.9987 34.3476 35.9989 33.7508C35.9991 33.1539 35.7622 32.5814 35.3403 32.1592L26.6778 23.4967C26.5974 23.4153 26.5109 23.3401 26.4191 23.2717V23.274ZM26.9996 14.625C26.9996 16.2501 26.6795 17.8593 26.0576 19.3607C25.4357 20.8621 24.5242 22.2263 23.375 23.3754C22.2259 24.5246 20.8617 25.4361 19.3603 26.058C17.8589 26.6799 16.2497 27 14.6246 27C12.9995 27 11.3903 26.6799 9.88887 26.058C8.38747 25.4361 7.02326 24.5246 5.87413 23.3754C4.72501 22.2263 3.81347 20.8621 3.19157 19.3607C2.56967 17.8593 2.24958 16.2501 2.24958 14.625C2.24958 11.3429 3.55337 8.1953 5.87413 5.87454C8.19489 3.55377 11.3425 2.24998 14.6246 2.24998C17.9066 2.24998 21.0543 3.55377 23.375 5.87454C25.6958 8.1953 26.9996 11.3429 26.9996 14.625Z" fill="current"/>
</g>
<defs>
<clipPath id="clip0_419_5103">
<rect width="36" height="36" fill="current"/>
</clipPath>
</defs>
</svg>
