<svg width="15" height="17" viewBox="0 0 15 17" fill="none" xmlns="http://www.w3.org/2000/svg">
<g clip-path="url(#clip0_442_72)">
<path d="M5.35714 13.2812C5.35714 13.5734 5.11607 13.8125 4.82143 13.8125C4.52679 13.8125 4.28571 13.5734 4.28571 13.2812V6.375C4.28571 6.08281 4.52679 5.84375 4.82143 5.84375C5.11607 5.84375 5.35714 6.08281 5.35714 6.375V13.2812ZM8.03571 13.2812C8.03571 13.5734 7.79464 13.8125 7.5 13.8125C7.20536 13.8125 6.96429 13.5734 6.96429 13.2812V6.375C6.96429 6.08281 7.20536 5.84375 7.5 5.84375C7.79464 5.84375 8.03571 6.08281 8.03571 6.375V13.2812ZM10.7143 13.2812C10.7143 13.5734 10.4732 13.8125 10.1786 13.8125C9.88393 13.8125 9.64286 13.5734 9.64286 13.2812V6.375C9.64286 6.08281 9.88393 5.84375 10.1786 5.84375C10.4732 5.84375 10.7143 6.08281 10.7143 6.375V13.2812ZM10.6306 0.828086L11.8594 2.65625H14.1964C14.6417 2.65625 15 3.01318 15 3.45312C15 3.89473 14.6417 4.25 14.1964 4.25H13.9286V14.3438C13.9286 15.8113 12.7299 17 11.25 17H3.75C2.27076 17 1.07143 15.8113 1.07143 14.3438V4.25H0.803571C0.359933 4.25 0 3.89473 0 3.45312C0 3.01318 0.359933 2.65625 0.803571 2.65625H3.14129L4.36942 0.828086C4.71763 0.310682 5.30357 0 5.92969 0H9.07031C9.69643 0 10.2824 0.310715 10.6306 0.828086ZM5.07254 2.65625H9.92745L9.29129 1.71195C9.24107 1.63824 9.15737 1.59375 9.07031 1.59375H5.92969C5.84263 1.59375 5.72879 1.63824 5.7087 1.71195L5.07254 2.65625ZM2.67857 14.3438C2.67857 14.9314 3.15837 15.4062 3.75 15.4062H11.25C11.8426 15.4062 12.3214 14.9314 12.3214 14.3438V4.25H2.67857V14.3438Z" fill="#FC0000"/>
</g>
<defs>
<clipPath id="clip0_442_72">
<rect width="15" height="17" fill="white"/>
</clipPath>
</defs>
</svg>
