<svg width="44" height="44" viewBox="0 0 44 44" fill="none" xmlns="http://www.w3.org/2000/svg">
<path d="M9.16673 25.3549C9.1658 25.081 9.22625 24.8104 9.34363 24.5629C9.46102 24.3155 9.63236 24.0974 9.84506 23.9249L20.8451 15.0699C21.1731 14.8002 21.5846 14.6528 22.0092 14.6528C22.4339 14.6528 22.8454 14.8002 23.1734 15.0699L34.1734 24.2366C34.5478 24.5477 34.7832 24.9949 34.8279 25.4797C34.8726 25.9645 34.7229 26.4472 34.4117 26.8216C34.1005 27.196 33.6534 27.4314 33.1686 27.4761C32.6838 27.5208 32.2011 27.3711 31.8267 27.0599L22.0001 18.8649L12.1734 26.7849C11.9043 27.0091 11.5766 27.1515 11.2291 27.1953C10.8816 27.239 10.5288 27.1824 10.2125 27.0319C9.89621 26.8815 9.62962 26.6436 9.44429 26.3464C9.25896 26.0492 9.16264 25.7051 9.16673 25.3549Z" fill="#3396F4"/>
</svg>
