<svg width="40" height="40" viewBox="0 0 40 40" fill="none" xmlns="http://www.w3.org/2000/svg">
<path fill-rule="evenodd" clip-rule="evenodd" d="M8.586 8.58616C8.96106 8.21122 9.46967 8.00059 10 8.00059C10.5303 8.00059 11.0389 8.21122 11.414 8.58616L20 17.1722L28.586 8.58616C28.7705 8.39514 28.9912 8.24278 29.2352 8.13796C29.4792 8.03314 29.7416 7.97797 30.0072 7.97566C30.2728 7.97335 30.5361 8.02396 30.7819 8.12452C31.0277 8.22508 31.251 8.37359 31.4388 8.56137C31.6266 8.74916 31.7751 8.97246 31.8756 9.21825C31.9762 9.46405 32.0268 9.72741 32.0245 9.99296C32.0222 10.2585 31.967 10.521 31.8622 10.765C31.7574 11.009 31.605 11.2297 31.414 11.4142L22.828 20.0002L31.414 28.5862C31.7783 28.9634 31.9799 29.4686 31.9753 29.993C31.9708 30.5174 31.7605 31.019 31.3896 31.3898C31.0188 31.7606 30.5172 31.971 29.9928 31.9755C29.4684 31.9801 28.9632 31.7785 28.586 31.4142L20 22.8282L11.414 31.4142C11.0368 31.7785 10.5316 31.9801 10.0072 31.9755C9.4828 31.971 8.98118 31.7606 8.61036 31.3898C8.23955 31.019 8.02921 30.5174 8.02465 29.993C8.02009 29.4686 8.22168 28.9634 8.586 28.5862L17.172 20.0002L8.586 11.4142C8.21106 11.0391 8.00043 10.5305 8.00043 10.0002C8.00043 9.46983 8.21106 8.96122 8.586 8.58616V8.58616Z" fill="#11416F"/>
</svg>
